<svg viewBox="0 0 24 24" fill="currentColor">
  <path
    d="M9.36564 5H9.47159L9.6257 5.0101L9.8665 5.0606L10.0206 5.12122L10.2133 5.22222L10.3481 5.32324L10.4926 5.44444L10.56 5.52526L10.6274 5.59596L10.743 5.76768L10.8586 6.0101L10.9356 6.25252L10.9645 6.42425L10.9742 6.52525V6.70707L10.9453 6.94949L10.8971 7.14142L10.7912 7.38384L10.7237 7.50505L10.6081 7.66667L10.4926 7.79798L10.3577 7.91919L10.2133 8.0202L10.0591 8.10101L9.88577 8.16162L9.64497 8.22222L9.51012 8.24243H9.31748L9.12484 8.21212L8.90331 8.15152L8.70104 8.06061L8.53729 7.9495L8.44097 7.86869L8.34465 7.77778L8.24833 7.66667L8.14239 7.51515L8.0268 7.30303L7.94975 7.10101L7.89196 6.85858L7.88232 6.78788V6.49495L7.91122 6.30303L7.96901 6.08081L8.0557 5.86868L8.12312 5.74748L8.23871 5.58586L8.38319 5.42424L8.52767 5.30303L8.67214 5.20202L8.80699 5.13131L8.9611 5.07071L9.173 5.0202L9.36564 5Z" />
  <path
    d="M14.432 10.3926H14.6921L14.8847 10.4229L15.0677 10.4734L15.2508 10.5542L15.3856 10.635L15.53 10.7461L15.6264 10.837L15.7516 10.9683L15.8672 11.14L15.9443 11.2814L16.0116 11.4329L16.0694 11.6249L16.108 11.8168L16.1176 12.0188L16.108 12.1805L16.0694 12.3825L16.0213 12.5643L15.9153 12.7966L15.8383 12.9279L15.742 13.0592L15.7131 13.0996H15.6938L15.6745 13.14L15.53 13.2814L15.3663 13.3925L15.2122 13.4734L15.0389 13.5441L14.8269 13.6047L14.6535 13.6248H14.4705L14.2876 13.6047L14.0853 13.5542L13.8926 13.4734L13.7385 13.3825L13.623 13.2916L13.517 13.2006V13.1805L13.4784 13.1602V13.14H13.4592L13.3918 13.0592L13.2858 12.9077L13.1703 12.6956L13.1028 12.534L13.0547 12.3723L13.0257 12.2208L13.0161 12.14V11.8673L13.045 11.6855L13.1028 11.4835L13.1606 11.332L13.228 11.1906L13.3051 11.0694L13.3918 10.9583L13.4977 10.837L13.6037 10.736L13.7578 10.6249L13.8926 10.5441L14.0275 10.4835L14.1912 10.4329L14.3454 10.4026L14.432 10.3926Z" />
  <path
    d="M9.28858 10.3926H9.53902L9.75092 10.4229L9.92429 10.4734L10.0495 10.5238L10.2036 10.6047L10.3481 10.7057L10.4926 10.8269L10.56 10.9077L10.637 10.9986L10.7719 11.2108L10.8682 11.4229L10.9356 11.635L10.9645 11.8067L10.9742 11.9077V12.0794L10.9453 12.342L10.8971 12.5239L10.8297 12.6956L10.743 12.8572L10.6467 12.9986L10.5408 13.14H10.5215L10.5022 13.1805L10.4059 13.2714L10.2325 13.3925L10.0784 13.4734L9.90503 13.5441L9.68349 13.6047L9.50049 13.6248H9.32712L9.1441 13.6047L8.95147 13.5542L8.79736 13.4936L8.61435 13.3925L8.49877 13.3017L8.30613 13.1199L8.21944 13.0088L8.13275 12.8774L8.03643 12.7057L7.95938 12.5137L7.90159 12.2916L7.88232 12.1602V11.8673L7.92085 11.635L7.96901 11.4632L8.04607 11.2814L8.08459 11.2006L8.18091 11.039L8.2676 10.928L8.41208 10.7764L8.52767 10.6855L8.68177 10.5845L8.88404 10.4835L9.05742 10.4329L9.2019 10.4026L9.28858 10.3926Z" />
  <path
    d="M14.3838 5.00977H14.7499L14.9618 5.05017L15.1351 5.11077L15.2893 5.19158L15.4048 5.26228L15.5205 5.35319L15.6167 5.4441L15.7516 5.58552L15.8479 5.71683L15.9539 5.90876L16.0116 6.05016L16.0694 6.23198L16.108 6.42391L16.1176 6.64613L16.0983 6.85824L16.0598 7.04006L16.002 7.22188L15.925 7.3835L15.8286 7.54512L15.7324 7.67643L15.6167 7.80774L15.53 7.88855L15.3856 7.98956L15.2315 8.08047L15.087 8.14107L14.7788 8.22189L14.6439 8.24209H14.4802L14.3068 8.22189L14.1046 8.17138L13.9215 8.10067L13.7578 8.00976L13.6518 7.92896L13.517 7.80774L13.4206 7.70673L13.2955 7.53501L13.1991 7.3633L13.1125 7.17138L13.0547 6.97946L13.0257 6.82795L13.0161 6.74713V6.4744L13.045 6.29259L13.1125 6.06027L13.2376 5.78754L13.3436 5.62592L13.4303 5.51481L13.5555 5.3835L13.6614 5.3027L13.8156 5.20168L13.9986 5.11077L14.1719 5.05017L14.3165 5.01986L14.3838 5.00977Z" />
  <path
    d="M9.25006 15.7871H9.58718L9.75092 15.8073L9.93393 15.8578L10.0784 15.9184L10.2518 16.0194L10.3866 16.1204L10.5119 16.2416L10.5793 16.3124L10.7045 16.4841L10.8201 16.6962L10.9164 16.9487L10.9549 17.1305L10.9742 17.3124V17.4739L10.9453 17.7264L10.8875 17.9386L10.8297 18.08L10.7141 18.3023L10.6081 18.4437L10.5215 18.5447L10.3962 18.6658L10.2518 18.7669L10.0977 18.8477L9.93393 18.9184L9.74129 18.9689L9.51975 18.9992H9.2308L9.01889 18.9588L8.81662 18.8881L8.66251 18.8073L8.55656 18.7366L8.46024 18.6558L8.36392 18.5649L8.27723 18.474L8.18091 18.3426L8.08459 18.181L8.00754 18.0295L7.94012 17.8477L7.90159 17.6861L7.88232 17.5547V17.2618L7.92085 17.0295L7.95938 16.8881L8.04607 16.6659L8.11349 16.5447L8.19055 16.4235L8.28687 16.3124L8.35429 16.2316L8.46024 16.1305L8.59509 16.0295L8.7492 15.9386L8.86478 15.878L9.04778 15.8174L9.25006 15.7871Z" />
  <path
    d="M14.4031 15.7871H14.7306L14.9329 15.8174L15.1255 15.878L15.2893 15.9588L15.4723 16.08L15.6071 16.2013L15.6553 16.2416L15.7227 16.3224L15.8672 16.5245L15.925 16.6255L16.002 16.7972L16.0694 17.0093L16.108 17.2012L16.1176 17.383L16.108 17.5547L16.0598 17.8073L16.002 17.9891L15.925 18.1609L15.8286 18.3224L15.7227 18.4638L15.5493 18.6457L15.4434 18.7265L15.3374 18.7972L15.1737 18.878L14.9714 18.9487L14.7595 18.9891L14.6632 18.9992H14.3646L14.1527 18.9588L13.9504 18.8881L13.7674 18.7871L13.6326 18.6861L13.5266 18.5952L13.4592 18.5144L13.3918 18.4437L13.2858 18.2921L13.1991 18.1406L13.1125 17.9487L13.0547 17.7567L13.0257 17.6153L13.0161 17.5346V17.2618L13.045 17.0699L13.1125 16.8376L13.1895 16.6558L13.2762 16.4942L13.3822 16.3527L13.5073 16.2113L13.6133 16.1204L13.7385 16.0194L13.8926 15.9285L14.0564 15.8578L14.1912 15.8174L14.4031 15.7871Z" />
</svg>