<svg viewBox="0 0 24 24" fill="currentColor">
  <path fill-rule="evenodd" clip-rule="evenodd"
    d="M3.60203 5L3.5 5.01311V15.6704L3.52551 15.9588L3.58927 16.3127L3.67854 16.6273L3.78057 16.9157L3.8826 17.1255L3.99737 17.3352L4.13766 17.5449L4.22693 17.6629L4.37997 17.8464L4.52026 18.0037L4.66054 18.1217L4.78807 18.2397L5.05589 18.4232L5.22168 18.5281L5.41298 18.633L5.71905 18.7772L6.03788 18.882L6.33121 18.9476L6.65004 18.9869L6.82858 19H17.1587L17.503 18.9738L17.8091 18.9213L18.1024 18.8427L18.4085 18.7247L18.6763 18.5936L18.9186 18.4494L19.0716 18.3446L19.2757 18.1873L19.4415 18.03L19.518 17.9644V17.9382L19.5563 17.9251L19.6455 17.8202L19.7986 17.6498L20.0281 17.2959L20.2067 16.9419L20.3215 16.6404L20.398 16.3652L20.4617 16.0243L20.4872 15.7753L20.5 15.5262V14.3333L20.4872 5.01311L20.2577 5H3.60203ZM5.515 8.78839L5.20893 8.55243L5.19617 8.60487L5.18342 10.2566V14.8315L5.19617 15.5393L5.22168 15.7753L5.25994 15.9588L5.33646 16.1948L5.43848 16.4045L5.56602 16.588L5.7063 16.7322L5.85934 16.8764L5.99962 16.9813L6.15266 17.073L6.35671 17.1517L6.62453 17.2172L6.84134 17.2434H17.0311L17.3882 17.2172L17.5158 17.191L17.7071 17.1255L17.9239 17.0206L18.1279 16.8895L18.2554 16.7715L18.3192 16.706L18.4595 16.5487L18.5743 16.3783L18.6763 16.1685L18.7528 15.9326L18.7911 15.7097L18.8038 15.4607V8.55243H18.7783L18.587 8.70974L16.521 10.3614L16.368 10.4794L16.1639 10.6498L15.9599 10.8071L15.7686 10.9644L15.6028 11.0955L15.4497 11.2135L15.2457 11.3839L15.0671 11.5281L14.8503 11.6985L14.659 11.8558L14.4295 12.0393L14.2637 12.1704L13.9066 12.4457L13.7026 12.5768L13.4475 12.7079L13.1287 12.839L12.8481 12.9307L12.6058 12.9831L12.2614 13.0356H11.8023L11.5473 13.0094L11.2539 12.9569L10.8968 12.8521L10.578 12.721L10.2974 12.5637L10.0934 12.4326L9.87659 12.2753L9.7108 12.1442L9.48125 11.9607L9.3027 11.8165L7.6958 10.5318L7.47899 10.3614L7.27494 10.191L5.8976 9.08989L5.73181 8.9588L5.515 8.78839ZM18.2299 6.75655H5.80833L5.77007 6.76966L5.78282 6.80899L5.92311 6.91386L6.12716 7.07116L6.31845 7.22846L6.77757 7.59551L7.10915 7.85768L7.23668 7.96255L7.56827 8.22472L7.6958 8.32959L8.02738 8.59176L8.15491 8.69663L8.33346 8.84082L8.47374 8.94569L8.61403 9.06367L8.77982 9.19476L8.93286 9.31273L9.07314 9.43071L9.22618 9.54869L9.34096 9.64045L9.67254 9.90262L9.80008 10.0075L10.1317 10.2697L10.2592 10.3745L10.425 10.5056L10.6035 10.6498L10.7183 10.7416L11.0499 11.0037L11.2539 11.1217L11.4452 11.2004L11.6493 11.2528L11.8661 11.2921H12.1084L12.3125 11.2659L12.593 11.1873L12.8353 11.0693L13.0011 10.9644L13.2052 10.8071L13.3837 10.6629L17.0566 7.72659L17.2224 7.59551L17.3755 7.47753L17.5795 7.30712L17.7963 7.1367L17.9876 6.9794L18.2044 6.80899L18.2299 6.75655Z" />
</svg>