<svg viewBox="0 0 24 24" fill="currentColor">
  <path fill-rule="evenodd" clip-rule="evenodd"
    d="M3.833 12.493c.73-2.05 3.288-5.661 8.677-5.661 5.378 0 7.877 3.597 8.579 5.644-.73 2.05-3.288 5.661-8.677 5.661-5.378 0-7.877-3.597-8.579-5.644m-1.361-.013-.191-.053c.677-2.406 3.668-7.095 10.229-7.095 6.564 0 9.491 4.694 10.134 7.105l-.194.051.191.054c-.677 2.406-3.668 7.095-10.229 7.095-6.564 0-9.491-4.694-10.134-7.105z">
  </path>
  <path fill-rule="evenodd" clip-rule="evenodd"
    d="M12.46 15.98a3.497 3.497 0 1 0 0-6.993 3.497 3.497 0 0 0 0 6.993m0 1.5a4.997 4.997 0 1 0 0-9.993 4.997 4.997 0 0 0 0 9.993">
  </path>
</svg>