<svg viewBox="0 0 24 24" fill="currentColor">
  <path
    d="M9 7.0004H11V17.0004H9V13.0004H5V17.0004H3V7.0004H5V11.0004H9V7.0004ZM17 15.0004C17.51 14.5904 17.6 14.3804 18.06 13.9504C18.4973 13.5497 18.9073 13.1231 19.29 12.6704C19.6237 12.2794 19.9091 11.8497 20.14 11.3904C20.339 11.0004 20.445 10.5684 20.45 10.1304C20.4553 9.68907 20.3631 9.25201 20.18 8.8504C20.0028 8.46555 19.7433 8.12421 19.42 7.8504C19.0738 7.56762 18.6767 7.35376 18.25 7.2204C17.7648 7.06807 17.2585 6.99381 16.75 7.0004C16.39 7.0004 16.0333 7.03374 15.68 7.1004C15.3375 7.162 15.0023 7.2592 14.68 7.3904C14.3758 7.52087 14.0873 7.68524 13.82 7.8804C13.5327 8.0904 13.2593 8.31707 13 8.5604L14.24 9.7804C14.5487 9.51368 14.8837 9.27913 15.24 9.0804C15.59 8.8794 15.987 8.7764 16.39 8.7804C16.8452 8.75049 17.296 8.88537 17.66 9.1604C17.971 9.4384 18.137 9.8444 18.11 10.2604C18.0957 10.6567 17.971 11.0411 17.75 11.3704C17.4656 11.8239 17.13 12.2433 16.75 12.6204C16.31 13.0504 15.77 13.5404 15.16 14.0504C14.55 14.5604 13.75 15.1104 13 15.7004V17.0004H21V15.0004H17Z" />
</svg>