<svg viewBox="0 0 24 24" fill="currentColor">
  <path
    d="M14.11 14.2186C14.465 14.5056 14.859 14.7416 15.28 14.9186C15.714 15.0996 16.18 15.1916 16.65 15.1886C17.134 15.2056 17.615 15.1026 18.05 14.8886C18.2132 14.8169 18.3521 14.6993 18.4497 14.5502C18.5473 14.4011 18.5996 14.2268 18.6 14.0486C18.6026 13.8453 18.5508 13.6451 18.45 13.4686C18.3267 13.2776 18.1491 13.1278 17.94 13.0386C17.621 12.9021 17.2843 12.8112 16.94 12.7686C16.4366 12.6966 15.9285 12.6632 15.42 12.6686V11.0986C16.1616 11.1519 16.9053 11.0285 17.59 10.7386C17.7716 10.6581 17.9269 10.5283 18.0383 10.3639C18.1497 10.1994 18.2127 10.007 18.22 9.80855C18.2328 9.65212 18.2044 9.49508 18.1378 9.35299C18.0711 9.2109 17.9685 9.08871 17.84 8.99855C17.4994 8.79523 17.1061 8.69777 16.71 8.71855C16.3145 8.73029 15.9259 8.82572 15.57 8.99855C15.195 9.16574 14.8395 9.37365 14.51 9.61855L13.29 8.22855C13.7912 7.85221 14.3434 7.54916 14.93 7.32855C15.5384 7.10544 16.182 6.99366 16.83 6.99855C17.355 6.99201 17.8788 7.04909 18.39 7.16855C18.821 7.26955 19.23 7.44555 19.6 7.68855C19.925 7.89955 20.195 8.18355 20.39 8.51855C20.58 8.86055 20.677 9.24755 20.67 9.63855C20.681 10.1186 20.493 10.5816 20.15 10.9186C19.7322 11.3088 19.2338 11.6023 18.69 11.7786V11.8386C19.299 11.9786 19.865 12.2636 20.34 12.6686C20.777 13.0506 21.02 13.6086 21 14.1886C21.005 14.6096 20.887 15.0236 20.66 15.3786C20.4293 15.7353 20.1218 16.036 19.76 16.2586C19.3521 16.5111 18.9065 16.6967 18.44 16.8086C17.9265 16.9365 17.3992 17.0004 16.87 16.9986C16.0838 17.0182 15.3007 16.8928 14.56 16.6286C13.9699 16.4138 13.434 16.0725 12.99 15.6286L14.11 14.2186ZM9 11.0006H5V7.00055H3V17.0006H5V13.0006H9V17.0006H11V7.00055H9V11.0006Z" />
</svg>