<svg fill="currentColor" viewBox="0 0 25 25">
  <path
    d="M12.046 4.948c2.405 0 2.69.01 3.635.053.879.038 1.353.186 1.67.309.418.162.72.359 1.033.671.317.317.51.616.672 1.034.123.316.27.795.31 1.67.041.95.052 1.234.052 3.635 0 2.405-.01 2.69-.053 3.635-.038.88-.186 1.354-.31 1.67-.16.419-.358.72-.67 1.034-.317.316-.616.51-1.034.671-.317.123-.795.271-1.67.31-.95.042-1.234.052-3.635.052-2.405 0-2.69-.01-3.635-.052-.88-.039-1.354-.187-1.67-.31a2.8 2.8 0 0 1-1.034-.671 2.8 2.8 0 0 1-.671-1.034c-.123-.316-.271-.794-.31-1.67-.042-.949-.052-1.234-.052-3.635 0-2.405.01-2.69.052-3.635.039-.879.187-1.354.31-1.67.161-.418.358-.72.671-1.034.317-.316.615-.51 1.034-.671.316-.123.794-.27 1.67-.31.945-.042 1.23-.052 3.635-.052m0-1.62c-2.444 0-2.75.01-3.71.052-.955.042-1.613.197-2.182.418a4.4 4.4 0 0 0-1.596 1.04 4.4 4.4 0 0 0-1.041 1.593c-.222.573-.376 1.227-.418 2.184-.043.963-.053 1.269-.053 3.712s.01 2.75.053 3.71c.042.955.196 1.613.418 2.182a4.4 4.4 0 0 0 1.04 1.596 4.4 4.4 0 0 0 1.593 1.037c.573.222 1.227.377 2.183.419.96.042 1.266.053 3.71.053s2.749-.01 3.708-.053c.957-.042 1.614-.197 2.184-.419a4.4 4.4 0 0 0 1.592-1.037 4.4 4.4 0 0 0 1.037-1.592c.222-.573.376-1.227.419-2.183.042-.96.052-1.266.052-3.71s-.01-2.749-.052-3.708c-.043-.957-.197-1.614-.419-2.184a4.2 4.2 0 0 0-1.03-1.6 4.4 4.4 0 0 0-1.592-1.036c-.574-.222-1.227-.376-2.184-.419-.963-.045-1.269-.056-3.712-.056m0 4.376a4.624 4.624 0 0 0 0 9.246 4.624 4.624 0 0 0 0-9.246m0 7.622a3 3 0 1 1 0-5.999 3 3 0 0 1 0 5.999m4.806-6.725a1.08 1.08 0 1 0 0-2.159 1.08 1.08 0 0 0 0 2.159" />
</svg>