<svg viewBox="0 0 24 24" fill="currentColor">
  <path
    d="M8.46505 11.2931C9.59805 10.1601 11.5741 10.1601 12.7071 11.2931L13.4141 12.0001L14.8281 10.5861L14.1211 9.87906C13.1781 8.93506 11.9221 8.41406 10.5861 8.41406C9.25005 8.41406 7.99405 8.93506 7.05105 9.87906L4.92905 12.0001C3.99384 12.939 3.46875 14.2103 3.46875 15.5356C3.46875 16.8608 3.99384 18.1321 4.92905 19.0711C5.39283 19.5357 5.9439 19.9041 6.55058 20.155C7.15725 20.4059 7.80755 20.5344 8.46405 20.5331C9.12073 20.5345 9.77122 20.4061 10.3781 20.1552C10.9849 19.9043 11.5362 19.5359 12.0001 19.0711L12.7071 18.3641L11.2931 16.9501L10.5861 17.6571C10.0225 18.2181 9.25973 18.533 8.46455 18.533C7.66938 18.533 6.90658 18.2181 6.34305 17.6571C5.78156 17.0938 5.46626 16.3309 5.46626 15.5356C5.46626 14.7402 5.78156 13.9773 6.34305 13.4141L8.46505 11.2931Z" />
  <path
    d="M11.9999 4.92875L11.2929 5.63575L12.7069 7.04975L13.4139 6.34275C13.9774 5.78174 14.7402 5.46678 15.5354 5.46678C16.3305 5.46678 17.0933 5.78174 17.6569 6.34275C18.2184 6.90602 18.5337 7.66892 18.5337 8.46425C18.5337 9.25958 18.2184 10.0225 17.6569 10.5857L15.5349 12.7067C14.4019 13.8397 12.4259 13.8397 11.2929 12.7067L10.5859 11.9997L9.17188 13.4137L9.87887 14.1207C10.8219 15.0647 12.0779 15.5857 13.4139 15.5857C14.7499 15.5857 16.0059 15.0647 16.9489 14.1207L19.0709 11.9997C20.0061 11.0608 20.5312 9.78951 20.5312 8.46425C20.5312 7.13899 20.0061 5.86772 19.0709 4.92875C18.1324 3.99256 16.861 3.4668 15.5354 3.4668C14.2098 3.4668 12.9383 3.99256 11.9999 4.92875Z" />
</svg>