<svg viewBox="0 0 24 24" fill="currentColor">
  <path
    d="M4.25 9.7988C4.25 5.5518 7.738 2.0918 12 2.0918C16.262 2.0918 19.75 5.5518 19.75 9.7988C19.75 12.0788 18.612 14.2758 17.279 16.1218C15.969 17.9348 14.396 19.5098 13.302 20.6048L13.219 20.6878L13.217 20.6898L11.992 21.9078L10.779 20.6648L10.749 20.6348L10.737 20.6218C9.637 19.5298 8.032 17.9348 6.702 16.0918C5.378 14.2538 4.25 12.0678 4.25 9.7988ZM12 3.5918C8.558 3.5918 5.75 6.3888 5.75 9.7988C5.75 11.5948 6.657 13.4638 7.92 15.2138C9.172 16.9498 10.698 18.4698 11.806 19.5708L11.849 19.6128L12.009 19.7768L12.157 19.6278L12.159 19.6258L12.22 19.5658C13.323 18.4608 14.825 16.9578 16.063 15.2438C17.334 13.4838 18.25 11.6038 18.25 9.7988C18.25 6.3888 15.442 3.5918 12 3.5918ZM13.699 8.6048C13.5124 8.15433 13.1545 7.79643 12.7041 7.60983C12.2536 7.42323 11.7475 7.42322 11.297 7.6098C11.0739 7.70218 10.8713 7.8376 10.7006 8.00831C10.5298 8.17902 10.3944 8.38168 10.302 8.60473C10.1154 9.05519 10.1154 9.56133 10.302 10.0118C10.3944 10.2349 10.5298 10.4376 10.7005 10.6084C10.8713 10.7792 11.074 10.9147 11.2971 11.0071C11.5202 11.0996 11.7593 11.1472 12.0008 11.1472C12.2423 11.1472 12.4814 11.0997 12.7045 11.0073C12.9276 10.9149 13.1304 10.7795 13.3011 10.6088C13.4719 10.438 13.6074 10.2353 13.6998 10.0122C13.7923 9.78913 13.8399 9.55001 13.8399 9.30853C13.8399 9.06704 13.7914 8.82791 13.699 8.6048ZM10.724 6.2248C11.129 6.05703 11.5631 5.97068 12.0014 5.97067C12.4398 5.97067 12.8739 6.057 13.2789 6.22475C13.6839 6.3925 14.0519 6.63838 14.3619 6.94835C14.6718 7.25831 14.9177 7.6263 15.0855 8.0313C15.2533 8.43629 15.3396 8.87037 15.3396 9.30874C15.3396 9.74711 15.2533 10.1812 15.0855 10.5862C14.9178 10.9912 14.6719 11.3592 14.362 11.6692C14.052 11.9791 13.684 12.225 13.279 12.3928C12.8739 12.5606 12.4398 12.6469 12.0014 12.6469C11.5629 12.6469 11.1288 12.5605 10.7238 12.3927C9.90572 12.0538 9.25581 11.4039 8.917 10.5858C8.57819 9.76774 8.57822 8.84859 8.9171 8.03055C9.25598 7.21252 9.90594 6.56361 10.724 6.2248Z" />
</svg>