<svg viewBox="0 0 24 24" fill="currentColor">
  <path
    d="M8.00002 18.9998H21V16.9998H8.00002V18.9998ZM8.00002 12.9998H21V10.9998H8.00002V12.9998ZM8.00002 4.9998V6.9998H21V4.9998H8.00002ZM3.57502 5.2518C3.68169 5.1558 3.77136 5.06413 3.84402 4.9768C3.83202 5.2048 3.82602 5.4568 3.82602 5.7328V7.9998H5.00102V3.7168H3.95902L2.48802 4.9148L3.08902 5.6528L3.57502 5.2518ZM3.90902 13.0158C4.38369 12.5898 4.69369 12.3008 4.83902 12.1488C4.98436 11.9968 5.10102 11.8518 5.18902 11.7138C5.27702 11.5758 5.34202 11.4358 5.38402 11.2938C5.42602 11.1511 5.44702 10.9958 5.44702 10.8278C5.44702 10.6031 5.38702 10.4005 5.26702 10.2198C5.08702 9.9488 4.97802 9.8998 4.76002 9.8028C4.52597 9.70145 4.27305 9.651 4.01802 9.6548C3.79736 9.6548 3.59869 9.67713 3.42202 9.7218C3.15702 9.7888 3.08202 9.8318 2.93102 9.9168C2.78102 10.0021 2.59536 10.1431 2.37402 10.3398L3.01002 11.0838C3.18402 10.9338 3.33969 10.8201 3.47702 10.7428C3.60115 10.6697 3.742 10.6298 3.88602 10.6268C3.99626 10.6197 4.10514 10.6543 4.19102 10.7238C4.22707 10.7574 4.2554 10.7983 4.27405 10.8439C4.29269 10.8895 4.30122 10.9386 4.29902 10.9878C4.29902 11.0778 4.28102 11.1638 4.24502 11.2458C4.20902 11.3278 4.14502 11.4258 4.05302 11.5398C3.96102 11.6545 3.76569 11.8678 3.46702 12.1798L2.42102 13.2378V13.9998H5.52902V13.0448H3.90902V13.0158ZM4.43902 17.7618V17.7438C4.74569 17.6571 4.98002 17.5191 5.14202 17.3298C5.30402 17.1391 5.38502 16.9108 5.38502 16.6448C5.38933 16.5014 5.35685 16.3593 5.29068 16.2321C5.22451 16.1048 5.12686 15.9966 5.00702 15.9178C4.75502 15.7418 4.40736 15.6538 3.96402 15.6538C3.65736 15.6538 3.38536 15.6871 3.14802 15.7538C2.79202 15.8538 2.67902 15.9318 2.45202 16.0878L2.93202 16.8608C3.22536 16.6775 3.50869 16.5858 3.78202 16.5858C3.92869 16.5858 4.04536 16.6131 4.13202 16.6678C4.26202 16.7498 4.26202 16.8068 4.26202 16.9198C4.26202 17.2205 3.96802 17.3708 3.38002 17.3708H3.11002V18.2408H3.37402C3.59136 18.2408 3.76702 18.2571 3.90102 18.2898C4.03569 18.3211 4.13336 18.3688 4.19402 18.4328C4.25469 18.4968 4.28502 18.5871 4.28502 18.7038C4.28502 18.8558 4.22702 18.9678 4.11102 19.0398C3.99502 19.1105 3.81002 19.1458 3.55602 19.1458C3.3746 19.1441 3.19401 19.1209 3.01802 19.0768C2.81907 19.0298 2.62664 18.9586 2.44502 18.8648V19.8258C2.67302 19.9131 2.88536 19.9738 3.08202 20.0078C3.27869 20.0418 3.49202 20.0585 3.72202 20.0578C4.28202 20.0578 4.72002 19.9435 5.03602 19.7148C5.35136 19.4861 5.50902 19.1728 5.50902 18.7748C5.51169 18.1895 5.15502 17.8518 4.43902 17.7618Z" />
</svg>