<svg viewBox="0 0 24 24" fill="currentColor">
  <path
    d="M13.24 14.6C12.6251 14.2141 12.1623 13.6278 11.93 12.94C12.1453 12.2966 12.2103 11.6124 12.12 10.94C12.0912 10.7706 12.0085 10.615 11.8844 10.4962C11.7602 10.3774 11.6011 10.3017 11.4306 10.2804C11.2601 10.2591 11.0872 10.2933 10.9376 10.3778C10.788 10.4624 10.6696 10.5929 10.6 10.75C10.4862 11.5584 10.572 12.3824 10.85 13.15C10.4702 14.0373 10.0463 14.905 9.58 15.75C8.87 16.15 7.9 16.75 7.75 17.44C7.63 18 8.68 19.44 10.47 16.32C11.2663 16.0258 12.0815 15.7852 12.91 15.6C13.5224 15.9509 14.206 16.1594 14.91 16.21C15.0716 16.2142 15.2309 16.1705 15.3677 16.0845C15.5046 15.9984 15.613 15.8738 15.6792 15.7263C15.7455 15.5788 15.7667 15.4151 15.7401 15.2556C15.7136 15.0961 15.6405 14.9481 15.53 14.83C15.11 14.4 13.86 14.52 13.24 14.6ZM8.46 17.6C8.73983 17.1201 9.10998 16.699 9.55 16.36C8.87 17.44 8.46 17.63 8.46 17.61V17.6ZM11.38 10.79C11.64 10.79 11.62 11.94 11.44 12.25C11.3056 11.7782 11.285 11.2813 11.38 10.8V10.79ZM10.51 15.67C10.8481 15.0515 11.1421 14.4099 11.39 13.75C11.6554 14.2426 12.0238 14.6723 12.47 15.01C11.7991 15.1783 11.1435 15.4024 10.51 15.68V15.67ZM15.21 15.49C15.21 15.49 15.03 15.71 13.88 15.21C15.13 15.13 15.34 15.42 15.21 15.5V15.49Z" />
  <path fill-rule="evenodd" clip-rule="evenodd"
    d="M18.28 8.75L12.75 3.22C12.6095 3.07931 12.4188 3.00018 12.22 3H7.75H5L5 5.75V17.75L5 20.5H7.75H14V19H7.75L6.5 19V17.75V5.75L6.5 4.5H7.75H11.5V9.25C11.5026 9.44811 11.5 10 11.5 10C11.5 10 12.0519 9.99741 12.25 10H17V15.7263H18.5V9.25C18.4921 9.0616 18.4136 8.88309 18.28 8.75ZM15.94 8.5L13 5.56V8.5H15.94Z" />
  <path
    d="M15.1162 20.5068H17.0442V22.1968H18.5442V20.5068H20.6162V19.0068H18.5442V16.6968H17.0442V19.0068H15.1162V20.5068Z" />
</svg>