<svg viewBox="0 0 24 24" fill="currentColor">
  <path fill-rule="evenodd" clip-rule="evenodd"
    d="M8 4.75a1.5 1.5 0 1 0 0 3 1.5 1.5 0 0 0 0-3m-3 1.5a3 3 0 1 1 6 0 3 3 0 0 1-6 0m11 .5a1.5 1.5 0 1 0 0 3 1.5 1.5 0 0 0 0-3m-3 1.5a3 3 0 1 1 6 0 3 3 0 0 1-6 0m-5 2.5a6.91 6.91 0 0 1 5.36 2.493 6.96 6.96 0 0 1 8.244 2.312l.146.199v4.996H2.25v-6.997l.147-.199A6.91 6.91 0 0 1 8 10.75m3.75 8.5h8.5v-2.995a5.46 5.46 0 0 0-8.5 0zm-1.5 0h-6.5v-4.994a5.41 5.41 0 0 1 4.245-2.006h.01a5.4 5.4 0 0 1 4.006 1.73 7 7 0 0 0-1.615 1.575l-.146.199z" />
</svg>