<svg viewBox="0 0 24 24" fill="currentColor">
  <path
    d="M21 11.0009H19.816C19.6124 10.4164 19.2318 9.90972 18.7273 9.55117C18.2227 9.19263 17.619 9 17 9C16.381 9 15.7773 9.19263 15.2727 9.55117C14.7682 9.90972 14.3876 10.4164 14.184 11.0009H9.816C9.61235 10.4164 9.23185 9.90972 8.72725 9.55117C8.22266 9.19263 7.619 9 7 9C6.381 9 5.77734 9.19263 5.27275 9.55117C4.76815 9.90972 4.38765 10.4164 4.184 11.0009H3C2.73478 11.0009 2 11 2 11C2 11 2 11.7357 2 12.0009C2 12.2662 2 13.0009 2 13.0009C2 13.0009 2.73478 13.0009 3 13.0009H4.184C4.38765 13.5855 4.76815 14.0922 5.27275 14.4507C5.77734 14.8093 6.381 15.0019 7 15.0019C7.619 15.0019 8.22266 14.8093 8.72725 14.4507C9.23185 14.0922 9.61235 13.5855 9.816 13.0009H14.184C14.3876 13.5855 14.7682 14.0922 15.2727 14.4507C15.7773 14.8093 16.381 15.0019 17 15.0019C17.619 15.0019 18.2227 14.8093 18.7273 14.4507C19.2318 14.0922 19.6124 13.5855 19.816 13.0009H21C21.2652 13.0009 22 13 22 13C22 13 22 12.2662 22 12.0009C22 11.7357 22 11 22 11C22 11 21.2652 11.0009 21 11.0009ZM7 13.0009C6.80222 13.0009 6.60888 12.9423 6.44443 12.8324C6.27998 12.7225 6.15181 12.5664 6.07612 12.3836C6.00043 12.2009 5.98063 11.9998 6.01921 11.8059C6.0578 11.6119 6.15304 11.4337 6.29289 11.2938C6.43275 11.154 6.61093 11.0587 6.80491 11.0202C6.99889 10.9816 7.19996 11.0014 7.38268 11.0771C7.56541 11.1528 7.72159 11.2809 7.83147 11.4454C7.94135 11.6098 8 11.8032 8 12.0009C8 12.2662 7.89464 12.5205 7.70711 12.7081C7.51957 12.8956 7.26522 13.0009 7 13.0009ZM17 13.0009C16.8022 13.0009 16.6089 12.9423 16.4444 12.8324C16.28 12.7225 16.1518 12.5664 16.0761 12.3836C16.0004 12.2009 15.9806 11.9998 16.0192 11.8059C16.0578 11.6119 16.153 11.4337 16.2929 11.2938C16.4327 11.154 16.6109 11.0587 16.8049 11.0202C16.9989 10.9816 17.2 11.0014 17.3827 11.0771C17.5654 11.1528 17.7216 11.2809 17.8315 11.4454C17.9414 11.6098 18 11.8032 18 12.0009C18 12.2662 17.8946 12.5205 17.7071 12.7081C17.5196 12.8956 17.2652 13.0009 17 13.0009Z" />
</svg>