<svg viewBox="0 0 24 24" fill="currentColor">
  <path
    d="M16.949 14.121L19.071 12C20.0062 11.061 20.5313 9.78973 20.5313 8.46447C20.5313 7.13921 20.0062 5.86794 19.071 4.92897C18.1325 3.99277 16.861 3.46702 15.5355 3.46702C14.2099 3.46702 12.9384 3.99277 12 4.92897L11.293 5.63597L12.707 7.04997L13.414 6.34297C13.9775 5.78196 14.7403 5.467 15.5355 5.467C16.3306 5.467 17.0934 5.78196 17.657 6.34297C18.2185 6.90624 18.5338 7.66914 18.5338 8.46447C18.5338 9.2598 18.2185 10.0227 17.657 10.586L15.535 12.707C15.2923 12.9488 15.0059 13.1422 14.691 13.277L13.414 12L14.828 10.586L14.121 9.87897C13.6578 9.41331 13.1069 9.04408 12.5001 8.79262C11.8934 8.54116 11.2428 8.41247 10.586 8.41397C10.351 8.41397 10.122 8.44597 9.89497 8.47997L3.70697 2.29297L2.29297 3.70697L20.293 21.707L21.707 20.293L16.171 14.757C16.449 14.573 16.7083 14.361 16.949 14.121ZM10.586 17.657C10.0224 18.218 9.25964 18.5329 8.46447 18.5329C7.6693 18.5329 6.9065 18.218 6.34297 17.657C5.78147 17.0937 5.46618 16.3308 5.46618 15.5355C5.46618 14.7401 5.78147 13.9772 6.34297 13.414L7.81897 11.939L6.40497 10.525L4.92897 12C3.99375 12.9389 3.46866 14.2102 3.46866 15.5355C3.46866 16.8607 3.99375 18.132 4.92897 19.071C5.39274 19.5356 5.94382 19.904 6.55049 20.1549C7.15716 20.4058 7.80746 20.5343 8.46397 20.533C9.12065 20.5344 9.77113 20.406 10.378 20.1551C10.9848 19.9042 11.5361 19.5358 12 19.071L12.707 18.364L11.293 16.95L10.586 17.657Z" />
</svg>