<svg viewBox="0 0 24 24" fill="currentColor">
  <path
    d="M3 21L4.27129 16.3778C3.48681 15.0248 3.0746 13.491 3.07536 11.9183C3.07762 7.00126 7.09798 3 12.0377 3C14.4349 3.00075 16.6851 3.93 18.3776 5.616C20.0693 7.30201 21.0008 9.54301 21 11.9265C20.9977 16.8443 16.9775 20.8455 12.0377 20.8455C10.5381 20.8447 9.0603 20.4705 7.75133 19.7596L3 21ZM7.97137 18.1448C9.23437 18.8911 10.4401 19.3381 12.0347 19.3388C16.1402 19.3388 19.4846 16.0133 19.4869 11.925C19.4884 7.82851 16.1598 4.50751 12.0407 4.50601C7.93218 4.50601 4.59006 7.83151 4.58855 11.919C4.5878 13.5878 5.07913 14.8373 5.9043 16.1446L5.15147 18.8806L7.97137 18.1448ZM16.5524 14.0468C16.4967 13.9538 16.3475 13.8983 16.1229 13.7865C15.8991 13.6748 14.7981 13.1355 14.5924 13.0613C14.3874 12.987 14.2382 12.9495 14.0882 13.173C13.939 13.3958 13.5095 13.8983 13.3791 14.0468C13.2487 14.1953 13.1176 14.214 12.8938 14.1023C12.67 13.9905 11.948 13.7558 11.0927 12.996C10.4273 12.405 9.97741 11.6753 9.84704 11.4518C9.71667 11.229 9.83347 11.1083 9.945 10.9973C10.046 10.8975 10.1688 10.737 10.2811 10.6065C10.3949 10.4775 10.4318 10.3845 10.5072 10.2353C10.5818 10.0868 10.5449 9.95626 10.4883 9.84451C10.4318 9.73351 9.98419 8.63626 9.79805 8.19001C9.61569 7.75576 9.43106 7.81426 9.29391 7.80751L8.86437 7.80001C8.71516 7.80001 8.4725 7.85551 8.26753 8.07901C8.06255 8.30251 7.48381 8.84101 7.48381 9.93826C7.48381 11.0355 8.28637 12.0953 8.3979 12.2438C8.51018 12.3923 9.97665 14.6438 12.2231 15.6091C12.7574 15.8386 13.1749 15.9758 13.4997 16.0786C14.0362 16.2481 14.5245 16.2241 14.9104 16.1671C15.3407 16.1033 16.2352 15.6278 16.4221 15.1073C16.6089 14.586 16.6089 14.1398 16.5524 14.0468Z" />
</svg>