<svg width="714" height="714" viewBox="0 0 714 714" fill="none" xmlns="http://www.w3.org/2000/svg">
<path d="M356.748 713.496C553.774 713.496 713.496 553.774 713.496 356.748C713.496 159.722 553.774 0 356.748 0C159.722 0 0 159.722 0 356.748C0 553.774 159.722 713.496 356.748 713.496Z" fill="#FF5533"/>
<path d="M421.164 602.363C405.564 602.363 392.89 589.659 392.89 574.06V490.48C392.89 486.934 391.59 483.478 389.256 480.819C389.197 480.76 389.138 480.671 389.079 480.612L370.761 457.952C368.102 454.643 368.605 449.827 371.914 447.168C375.223 444.509 380.038 445.011 382.697 448.32L400.926 470.862C405.623 476.328 408.223 483.3 408.223 490.509V574.09C408.223 581.21 414.014 587.03 421.164 587.03C428.313 587.03 434.104 581.239 434.104 574.09V475.176C434.104 471.631 432.834 468.203 430.5 465.515L371.5 397.711C370.052 396.057 369.402 393.87 369.668 391.714L378.886 319.035C379.27 315.933 381.515 313.363 384.558 312.565C387.572 311.767 390.792 312.89 392.654 315.401L436.32 373.958C437.649 375.76 439.776 376.823 442.022 376.823H503.355C506.664 376.823 509.707 375.464 511.923 373.012C514.139 370.56 515.173 367.369 514.819 364.09L514.7 362.997C514.11 357.324 509.353 352.893 503.651 352.686L460.398 351.445C453.278 351.238 446.631 347.634 442.554 341.784L392.683 276.728C390.113 273.36 390.733 268.544 394.101 265.974C397.469 263.403 402.285 264.024 404.855 267.392L454.874 332.625C454.962 332.744 455.051 332.862 455.139 333.009C456.41 334.9 458.537 336.082 460.841 336.141L504.153 337.382C517.507 337.855 528.586 348.195 530.004 361.431L530.122 362.524C530.92 370.087 528.468 377.68 523.357 383.323C518.275 388.966 510.978 392.216 503.385 392.216H442.051C434.99 392.216 428.254 388.848 424.059 383.175L391.767 339.864L385.386 390.266L442.11 455.47C446.867 460.935 449.496 467.967 449.496 475.205V574.119C449.467 589.659 436.763 602.363 421.164 602.363Z" fill="white"/>
<path d="M259.292 597.772C252.526 597.772 245.76 595.379 240.383 590.564L239.881 590.091C228.477 579.839 227.384 562.172 237.37 550.59L290.372 481.989C293.385 478.178 294.39 473.155 293.12 468.517L274.861 402.338C272.439 393.563 271.996 384.168 273.561 375.216L286.383 302.065L250.487 307.56C247.533 308.003 245.169 310.278 244.579 313.203L236.483 354.004C233.618 368.421 219.555 377.905 205.108 375.187C197.958 373.828 191.813 369.78 187.765 363.753C183.718 357.726 182.3 350.488 183.747 343.368L197.781 275.032C199.642 265.962 206.732 259.078 215.832 257.424L316.489 238.723C320.655 237.954 324.673 240.702 325.441 244.868C326.209 249.033 323.461 253.051 319.296 253.82L218.609 272.521C215.684 273.053 213.439 275.239 212.848 278.105L198.815 346.44C198.194 349.483 198.785 352.586 200.528 355.185C202.271 357.785 204.901 359.528 207.973 360.09C214.148 361.242 220.205 357.194 221.416 350.99L229.511 310.19C231.343 300.942 238.847 293.793 248.153 292.345L294.626 285.225C297.078 284.841 299.56 285.668 301.274 287.441C303.017 289.213 303.785 291.695 303.342 294.147L288.658 377.846C287.477 384.582 287.802 391.643 289.633 398.261L307.892 464.44C310.462 473.746 308.423 483.85 302.455 491.443L249.365 560.163C249.276 560.281 249.158 560.429 249.069 560.547C244.431 565.835 244.904 573.989 250.133 578.687L250.635 579.16C255.805 583.798 263.812 583.503 268.627 578.51L307.892 531.091C310.61 527.812 315.425 527.369 318.705 530.087C321.984 532.805 322.427 537.621 319.709 540.9L280.297 588.525C280.209 588.643 280.12 588.761 280.002 588.85C274.477 594.729 266.884 597.772 259.292 597.772Z" fill="white"/>
<path d="M383.318 262.343C382.579 262.343 381.811 262.225 381.073 262.018L367.423 257.882C363.376 256.641 361.071 252.357 362.312 248.31C363.553 244.262 367.837 241.958 371.884 243.198L377.232 244.823L380.955 223.729C381.339 221.513 382.698 219.593 384.618 218.44C386.568 217.288 388.902 217.081 391.029 217.82L392.034 218.175L392.477 202.516C380.245 200.95 355.015 196.637 335.161 186.356C331.409 184.406 329.932 179.767 331.882 176.015C333.832 172.263 338.47 170.786 342.222 172.736C366.182 185.144 400.601 188.01 400.956 188.01C405.033 188.335 408.135 191.792 408.017 195.869L407.072 229.076C407.012 231.529 405.772 233.803 403.763 235.192C401.754 236.581 399.183 236.935 396.879 236.137L394.486 235.31L390.822 256.08C390.438 258.236 389.138 260.127 387.277 261.28C386.095 261.959 384.707 262.343 383.318 262.343Z" fill="white"/>
<path d="M338.884 267.869C338.175 267.869 337.466 267.78 336.757 267.573L316.696 261.812C312.708 260.66 310.344 256.553 311.378 252.506L322.339 210.11L261.921 225.798C257.815 226.861 253.619 224.409 252.556 220.303C251.492 216.196 253.944 212.001 258.051 210.937L331.084 191.97C333.714 191.29 336.52 192.058 338.441 193.979C340.361 195.899 341.129 198.706 340.45 201.335L328.1 249.108L333.448 250.644L345.679 204.171C346.772 200.065 350.938 197.613 355.044 198.706C359.151 199.799 361.603 203.994 360.51 208.071L346.27 262.137C345.738 264.146 344.438 265.83 342.636 266.864C341.513 267.514 340.213 267.869 338.884 267.869Z" fill="white"/>
<path d="M259.055 193.792C254.978 193.792 251.58 190.601 251.403 186.465C251.196 182.24 254.476 178.636 258.7 178.429L319.414 175.593C323.698 175.416 327.243 178.665 327.45 182.89C327.656 187.115 324.377 190.719 320.152 190.926L259.439 193.763C259.291 193.792 259.173 193.792 259.055 193.792Z" fill="white"/>
<path d="M323.55 173.883C322.782 173.883 321.984 173.765 321.187 173.499L265.23 155.477C261.183 154.177 258.967 149.863 260.267 145.816C261.567 141.768 265.91 139.552 269.928 140.852L325.884 158.874C329.932 160.174 332.148 164.488 330.848 168.535C329.814 171.815 326.8 173.883 323.55 173.883Z" fill="white"/>
<path d="M408.992 176.04L393.658 175.301C393.658 175.301 393.688 171.756 391.679 168.004C389.109 163.159 384.175 159.968 377.055 158.55C359.151 154.975 352.947 164.37 352.887 164.459C351.794 166.29 349.992 167.561 347.924 168.004C345.856 168.447 343.67 168.004 341.927 166.793L283.104 125.992C279.618 123.57 278.761 118.784 281.184 115.297C283.606 111.811 288.393 110.954 291.879 113.377L345.295 150.425C351.233 145.491 362.312 139.908 380.098 143.482C403.969 148.269 409.435 166.881 408.992 176.04Z" fill="white"/>
<path d="M377.291 399.313C331.645 399.313 280.977 384.275 278.85 383.625C274.802 382.413 272.498 378.129 273.709 374.052C274.921 370.005 279.204 367.671 283.281 368.912C283.784 369.059 333.95 383.95 377.291 383.95C381.545 383.95 384.972 387.377 384.972 391.631C384.972 395.885 381.516 399.313 377.291 399.313Z" fill="white"/>
<path d="M360.894 528.295H329.163C324.909 528.295 321.482 524.868 321.482 520.614V387.517C321.482 383.263 324.909 379.836 329.163 379.836C333.417 379.836 336.845 383.263 336.845 387.517V512.932H352.798L346.092 391.033C345.856 386.808 349.105 383.174 353.33 382.938C357.585 382.702 361.189 385.952 361.425 390.176L368.605 520.2C368.723 522.298 367.955 524.366 366.507 525.902C365.03 527.409 363.021 528.295 360.894 528.295Z" fill="white"/>
<path d="M350.642 293.451C331.881 293.451 319.355 284.795 318.586 284.263C315.13 281.811 314.303 277.025 316.755 273.568C319.207 270.112 323.963 269.284 327.42 271.707C328.336 272.357 348.81 285.977 375.636 271.264C379.359 269.225 384.027 270.584 386.065 274.307C388.104 278.029 386.745 282.697 383.022 284.736C371.116 291.265 360.096 293.451 350.642 293.451Z" fill="white"/>
<path d="M439.717 523.148H403.88C399.626 523.148 396.199 519.721 396.199 515.467C396.199 511.212 399.626 507.785 403.88 507.785H439.717C443.972 507.785 447.399 511.212 447.399 515.467C447.399 519.721 443.972 523.148 439.717 523.148Z" fill="white"/>
<path d="M306.65 549.771C304.996 549.771 303.342 549.239 301.923 548.146L270.488 523.565C267.15 520.965 266.559 516.12 269.159 512.782C271.759 509.443 276.604 508.852 279.943 511.452L311.378 536.033C314.716 538.633 315.307 543.478 312.707 546.817C311.171 548.766 308.925 549.771 306.65 549.771Z" fill="white"/>
</svg>
