<svg width="2676" height="881" viewBox="0 0 2676 881" fill="none" xmlns="http://www.w3.org/2000/svg">
<path d="M415.585 856.363C388.343 856.363 366.208 834.177 366.208 806.935V660.971C366.208 654.78 363.938 648.743 359.862 644.1C359.759 643.996 359.656 643.842 359.553 643.738L327.564 604.165C322.92 598.386 323.797 589.976 329.576 585.332C335.354 580.689 343.765 581.566 348.408 587.345L380.242 626.712C388.446 636.257 392.987 648.434 392.987 661.023V806.986C392.987 819.421 403.099 829.585 415.585 829.585C428.071 829.585 438.184 819.472 438.184 806.986V634.245C438.184 628.053 435.966 622.068 431.89 617.373L328.853 498.962C326.325 496.072 325.19 492.254 325.655 488.488L341.752 361.563C342.423 356.145 346.344 351.657 351.659 350.264C356.921 348.871 362.545 350.831 365.796 355.217L442.054 457.479C444.376 460.626 448.09 462.484 452.012 462.484H559.124C564.903 462.484 570.217 460.11 574.087 455.828C577.956 451.545 579.762 445.973 579.143 440.246L578.937 438.337C577.905 428.431 569.598 420.691 559.64 420.33L484.104 418.163C471.67 417.802 460.061 411.507 452.941 401.292L365.847 287.678C361.359 281.796 362.442 273.386 368.324 268.898C374.206 264.409 382.616 265.492 387.105 271.374L474.456 385.297C474.611 385.503 474.765 385.71 474.92 385.968C477.139 389.27 480.854 391.334 484.878 391.437L560.517 393.604C583.838 394.429 603.186 412.488 605.663 435.602L605.869 437.511C607.262 450.72 602.98 463.98 594.054 473.835C585.18 483.689 572.436 489.365 559.176 489.365H452.063C439.732 489.365 427.968 483.483 420.642 473.577L364.248 397.938L353.103 485.96L452.167 599.831C460.473 609.376 465.065 621.656 465.065 634.296V807.038C465.014 834.177 442.828 856.363 415.585 856.363Z" fill="#FF5533"/>
<path d="M132.894 848.35C121.079 848.35 109.263 844.171 99.8731 835.761L98.9959 834.935C79.0801 817.032 77.1711 786.178 94.6104 765.952L187.173 646.148C192.435 639.492 194.19 630.721 191.971 622.62L160.085 507.046C155.854 491.723 155.08 475.315 157.815 459.682L180.207 331.931L117.519 341.528C112.359 342.302 108.232 346.275 107.2 351.383L93.0625 422.636C88.0577 447.815 63.4983 464.377 38.2682 459.63C25.7821 457.257 15.0502 450.188 7.98158 439.663C0.913004 429.137 -1.56358 416.496 0.964596 404.062L25.4724 284.721C28.7229 268.882 41.1058 256.86 56.9972 253.971L232.783 221.311C240.058 219.969 247.075 224.768 248.416 232.043C249.758 239.318 244.959 246.335 237.684 247.676L61.8472 280.336C56.7393 281.265 52.818 285.083 51.7861 290.087L27.2783 409.428C26.1948 414.742 27.2267 420.16 30.2708 424.7C33.315 429.24 37.907 432.284 43.2729 433.265C54.0564 435.277 64.6334 428.209 66.7488 417.373L80.8859 346.12C84.0849 329.971 97.1901 317.485 113.443 314.956L194.602 302.522C198.885 301.851 203.219 303.296 206.211 306.392C209.255 309.487 210.597 313.821 209.823 318.104L184.18 464.274C182.116 476.037 182.684 488.369 185.883 499.926L217.769 615.5C222.257 631.753 218.697 649.398 208.275 662.658L115.558 782.669C115.403 782.876 115.197 783.134 115.042 783.34C106.942 792.576 107.767 806.816 116.9 815.019L117.777 815.845C126.806 823.945 140.788 823.43 149.198 814.71L217.769 731.899C222.515 726.172 230.925 725.398 236.653 730.145C242.38 734.892 243.154 743.302 238.407 749.029L169.579 832.201C169.424 832.407 169.269 832.614 169.063 832.768C159.414 843.036 146.154 848.35 132.894 848.35Z" fill="#FF5533"/>
<path d="M349.492 262.555C348.202 262.555 346.861 262.348 345.571 261.987L321.734 254.764C314.665 252.597 310.641 245.115 312.808 238.047C314.975 230.978 322.456 226.954 329.525 229.121L338.863 231.959L345.364 195.119C346.035 191.25 348.408 187.896 351.762 185.884C355.167 183.872 359.244 183.51 362.958 184.8L364.713 185.419L365.487 158.074C344.126 155.339 300.063 147.806 265.391 129.851C258.839 126.446 256.259 118.345 259.664 111.793C263.07 105.24 271.17 102.66 277.723 106.066C319.567 127.736 379.675 132.74 380.294 132.74C387.415 133.308 392.832 139.345 392.626 146.465L390.975 204.458C390.872 208.741 388.705 212.713 385.196 215.138C381.688 217.563 377.199 218.183 373.174 216.789L368.995 215.345L362.597 251.616C361.926 255.383 359.656 258.685 356.406 260.697C354.342 261.884 351.917 262.555 349.492 262.555Z" fill="#FF5533"/>
<path d="M271.893 272.2C270.655 272.2 269.416 272.045 268.178 271.684L233.145 261.623C226.179 259.611 222.052 252.439 223.858 245.37L243 171.331L137.487 198.728C130.315 200.585 122.989 196.303 121.131 189.131C119.274 181.959 123.556 174.633 130.728 172.776L258.272 139.651C262.864 138.465 267.765 139.806 271.119 143.16C274.473 146.513 275.814 151.415 274.628 156.007L253.061 239.437L262.399 242.12L283.76 160.96C285.669 153.788 292.944 149.506 300.116 151.415C307.288 153.324 311.57 160.651 309.661 167.771L284.792 262.19C283.863 265.699 281.593 268.64 278.446 270.446C276.485 271.581 274.215 272.2 271.893 272.2Z" fill="#FF5533"/>
<path d="M132.481 142.842C125.361 142.842 119.427 137.269 119.118 130.046C118.757 122.668 124.484 116.373 131.862 116.012L237.89 111.059C245.372 110.749 251.563 116.425 251.924 123.803C252.286 131.181 246.558 137.476 239.18 137.837L133.152 142.79C132.894 142.842 132.687 142.842 132.481 142.842Z" fill="#FF5533"/>
<path d="M245.115 108.075C243.773 108.075 242.38 107.869 240.987 107.405L143.265 75.9314C136.197 73.6612 132.327 66.1282 134.597 59.0597C136.867 51.9911 144.452 48.1215 151.469 50.3917L249.191 81.8648C256.259 84.135 260.129 91.668 257.859 98.7366C256.053 104.464 250.79 108.075 245.115 108.075Z" fill="#FF5533"/>
<path d="M394.328 111.839L367.55 110.549C367.55 110.549 367.602 104.357 364.093 97.8047C359.605 89.343 350.988 83.7707 338.554 81.2941C307.287 75.051 296.452 91.4584 296.348 91.6132C294.439 94.8121 291.292 97.0308 287.68 97.8047C284.069 98.5786 280.251 97.8047 277.207 95.6893L174.48 24.436C168.392 20.2052 166.896 11.8466 171.126 5.75838C175.357 -0.329877 183.716 -1.82611 189.804 2.40471L283.088 67.1054C293.459 58.4889 312.807 48.7374 343.868 54.9805C385.557 63.3389 395.102 95.8441 394.328 111.839Z" fill="#FF5533"/>
<path d="M338.967 501.752C259.252 501.752 170.766 475.49 167.051 474.355C159.982 472.24 155.958 464.758 158.073 457.638C160.189 450.57 167.67 446.494 174.79 448.661C175.667 448.919 263.276 474.923 338.967 474.923C346.397 474.923 352.382 480.908 352.382 488.337C352.382 495.767 346.345 501.752 338.967 501.752Z" fill="#FF5533"/>
<path d="M310.331 727.009H254.917C247.487 727.009 241.502 721.024 241.502 713.595V481.157C241.502 473.727 247.487 467.742 254.917 467.742C262.347 467.742 268.332 473.727 268.332 481.157V700.18H296.194L284.481 487.297C284.069 479.919 289.744 473.573 297.122 473.16C304.552 472.747 310.847 478.422 311.259 485.801L323.797 712.872C324.004 716.535 322.662 720.147 320.134 722.83C317.554 725.461 314.046 727.009 310.331 727.009Z" fill="#FF5533"/>
<path d="M292.427 316.883C259.664 316.883 237.788 301.766 236.446 300.837C230.409 296.555 228.965 288.196 233.247 282.159C237.53 276.123 245.837 274.678 251.873 278.909C253.473 280.044 289.228 303.829 336.077 278.135C342.578 274.575 350.73 276.948 354.29 283.449C357.85 289.95 355.477 298.102 348.976 301.662C328.183 313.065 308.938 316.883 292.427 316.883Z" fill="#FF5533"/>
<path d="M447.987 718.025H385.402C377.972 718.025 371.987 712.04 371.987 704.61C371.987 697.18 377.972 691.195 385.402 691.195H447.987C455.417 691.195 461.402 697.18 461.402 704.61C461.402 712.04 455.417 718.025 447.987 718.025Z" fill="#FF5533"/>
<path d="M215.602 764.518C212.712 764.518 209.823 763.589 207.346 761.68L152.449 718.753C146.618 714.213 145.587 705.751 150.127 699.921C154.667 694.09 163.129 693.059 168.959 697.599L223.857 740.526C229.687 745.067 230.719 753.528 226.179 759.359C223.496 762.764 219.574 764.518 215.602 764.518Z" fill="#FF5533"/>
<path d="M816 164.179H900.745V525.768H816V164.179Z" fill="#FF5533"/>
<path d="M928.063 262.324H1005.57V307.265C1011.77 291.768 1021.94 279.199 1036.06 269.556C1050.18 259.914 1067.41 255.093 1087.73 255.093C1111.16 255.093 1129.93 263.185 1144.06 279.371C1158.53 295.556 1165.76 318.113 1165.76 347.04V525.768H1083.08V372.351C1083.08 359.954 1079.81 350.139 1073.27 342.907C1067.06 335.331 1058.28 331.543 1046.91 331.543C1035.54 331.543 1026.59 335.331 1020.04 342.907C1013.84 350.139 1010.74 359.954 1010.74 372.351V525.768H928.063V262.324Z" fill="#FF5533"/>
<path d="M1329.37 533C1301.81 533 1277.18 526.974 1255.48 514.921C1234.12 502.523 1217.41 485.821 1205.36 464.815C1193.3 443.808 1187.27 420.219 1187.27 394.046C1187.27 367.874 1193.3 344.285 1205.36 323.278C1217.41 302.272 1234.29 285.742 1256 273.689C1277.7 261.291 1302.5 255.093 1330.41 255.093C1370.02 255.093 1401.54 265.424 1424.97 286.086C1448.74 306.404 1462.35 332.921 1465.79 365.636H1384.66C1381.22 355.993 1374.67 347.901 1365.03 341.358C1355.38 334.815 1344.01 331.543 1330.92 331.543C1312.66 331.543 1297.85 337.397 1286.48 349.106C1275.46 360.815 1269.95 375.795 1269.95 394.046C1269.95 412.298 1275.46 427.278 1286.48 438.987C1297.85 450.695 1312.66 456.55 1330.92 456.55C1343.67 456.55 1354.69 453.278 1363.99 446.735C1373.64 440.192 1380.36 432.099 1384.15 422.457H1465.79C1463.03 443.464 1455.8 462.404 1444.09 479.278C1432.72 495.808 1417.04 508.894 1397.06 518.536C1377.43 528.179 1354.86 533 1329.37 533Z" fill="#FF5533"/>
<path d="M1609.64 533C1586.9 533 1565.55 527.49 1545.57 516.47C1525.93 505.106 1510.08 488.921 1498.03 467.914C1486.31 446.563 1480.46 421.94 1480.46 394.046C1480.46 366.152 1486.31 341.702 1498.03 320.695C1510.08 299.344 1525.93 283.159 1545.57 272.139C1565.55 260.775 1586.9 255.093 1609.64 255.093C1627.55 255.093 1643.75 258.536 1658.21 265.424C1672.68 271.967 1683.36 280.404 1690.25 290.735V262.324H1769.83V525.768H1690.25V497.358C1683.36 507.689 1672.68 516.298 1658.21 523.185C1643.75 529.728 1627.55 533 1609.64 533ZM1626.69 457.583C1644.95 457.583 1660.11 451.728 1672.17 440.02C1684.22 427.967 1690.25 412.642 1690.25 394.046C1690.25 375.45 1684.22 360.298 1672.17 348.589C1660.11 336.536 1644.95 330.51 1626.69 330.51C1608.43 330.51 1593.28 336.536 1581.22 348.589C1569.16 360.298 1563.13 375.45 1563.13 394.046C1563.13 412.642 1569.16 427.967 1581.22 440.02C1593.28 451.728 1608.43 457.583 1626.69 457.583Z" fill="#FF5533"/>
<path d="M1977.85 328.444H1918.42V525.768H1835.74V328.444H1787.17V262.324H1835.74V184.841H1918.42V262.324H1977.85V328.444Z" fill="#FF5533"/>
<path d="M2158.58 262.324V346.007H2121.38C2093.82 346.007 2080.04 359.781 2080.04 387.331V525.768H1997.36V262.324H2074.87V311.914C2077.63 296.073 2084.69 283.848 2096.06 275.238C2107.43 266.629 2120.17 262.324 2134.3 262.324H2158.58Z" fill="#FF5533"/>
<path d="M2292.9 533C2270.17 533 2248.81 527.49 2228.83 516.47C2209.19 505.106 2193.34 488.921 2181.29 467.914C2169.57 446.563 2163.72 421.94 2163.72 394.046C2163.72 366.152 2169.57 341.702 2181.29 320.695C2193.34 299.344 2209.19 283.159 2228.83 272.139C2248.81 260.775 2270.17 255.093 2292.9 255.093C2310.81 255.093 2327.01 258.536 2341.47 265.424C2355.94 271.967 2366.62 280.404 2373.51 290.735V262.324H2453.09V525.768H2373.51V497.358C2366.62 507.689 2355.94 516.298 2341.47 523.185C2327.01 529.728 2310.81 533 2292.9 533ZM2309.95 457.583C2328.21 457.583 2343.37 451.728 2355.43 440.02C2367.48 427.967 2373.51 412.642 2373.51 394.046C2373.51 375.45 2367.48 360.298 2355.43 348.589C2343.37 336.536 2328.21 330.51 2309.95 330.51C2291.7 330.51 2276.54 336.536 2264.48 348.589C2252.42 360.298 2246.4 375.45 2246.4 394.046C2246.4 412.642 2252.42 427.967 2264.48 440.02C2276.54 451.728 2291.7 457.583 2309.95 457.583Z" fill="#FF5533"/>
<path d="M2523.14 241.146C2509.7 241.146 2498.16 236.325 2488.52 226.682C2478.87 217.04 2474.05 205.503 2474.05 192.073C2474.05 178.642 2478.87 167.106 2488.52 157.464C2498.16 147.821 2509.7 143 2523.14 143C2536.57 143 2548.11 147.821 2557.76 157.464C2567.41 167.106 2572.23 178.642 2572.23 192.073C2572.23 205.503 2567.41 217.04 2557.76 226.682C2548.11 236.325 2536.57 241.146 2523.14 241.146ZM2481.8 262.324H2564.48V525.768H2481.8V262.324Z" fill="#FF5533"/>
<path d="M2593.32 164.179H2676V525.768H2593.32V164.179Z" fill="#FF5533"/>
<path d="M1192.08 823.761C1171.1 823.761 1151.53 818.991 1133.36 809.451C1115.41 799.911 1101.03 786.144 1090.22 768.148C1079.41 750.153 1074 729.23 1074 705.381C1074 681.531 1079.41 660.608 1090.22 642.613C1101.03 624.617 1115.41 610.85 1133.36 601.31C1151.53 591.77 1171.1 587 1192.08 587C1213.05 587 1232.52 591.77 1250.46 601.31C1268.63 610.85 1283.12 624.617 1293.93 642.613C1304.74 660.608 1310.15 681.531 1310.15 705.381C1310.15 729.23 1304.74 750.153 1293.93 768.148C1283.12 786.144 1268.63 799.911 1250.46 809.451C1232.52 818.991 1213.05 823.761 1192.08 823.761ZM1192.08 774.978C1204.62 774.978 1215.76 771.942 1225.49 765.872C1235.43 759.801 1243.11 751.562 1248.52 741.155C1254.14 730.531 1256.95 718.606 1256.95 705.381C1256.95 692.155 1254.14 680.338 1248.52 669.931C1243.11 659.308 1235.43 650.96 1225.49 644.889C1215.76 638.819 1204.62 635.783 1192.08 635.783C1179.53 635.783 1168.29 638.819 1158.34 644.889C1148.61 650.96 1140.93 659.308 1135.31 669.931C1129.9 680.338 1127.2 692.155 1127.2 705.381C1127.2 718.606 1129.9 730.531 1135.31 741.155C1140.93 751.562 1148.61 759.801 1158.34 765.872C1168.29 771.942 1179.53 774.978 1192.08 774.978Z" fill="black"/>
<path d="M1325.58 653.345H1375.54V671.232C1379.87 664.728 1386.57 659.416 1395.65 655.296C1404.73 650.96 1414.9 648.792 1426.14 648.792C1440.42 648.792 1453.72 652.369 1466.04 659.524C1478.59 666.462 1488.53 676.653 1495.89 690.095C1503.46 703.321 1507.24 718.715 1507.24 736.277C1507.24 753.838 1503.13 769.232 1494.91 782.458C1486.91 795.684 1476.42 805.874 1463.45 813.029C1450.47 820.184 1436.96 823.761 1422.9 823.761C1412.52 823.761 1403.44 822.243 1395.65 819.208C1388.08 815.956 1382.03 811.945 1377.49 807.175V881H1325.58V653.345ZM1415.44 776.279C1426.9 776.279 1436.42 772.593 1443.98 765.221C1451.55 757.633 1455.34 747.985 1455.34 736.277C1455.34 724.569 1451.55 715.029 1443.98 707.657C1436.42 700.069 1426.9 696.274 1415.44 696.274C1403.98 696.274 1394.46 700.069 1386.89 707.657C1379.32 715.029 1375.54 724.569 1375.54 736.277C1375.54 747.985 1379.32 757.633 1386.89 765.221C1394.46 772.593 1403.98 776.279 1415.44 776.279Z" fill="black"/>
<path d="M1689.4 748.96H1568.73C1570.46 758.5 1574.35 765.98 1580.41 771.4C1586.46 776.821 1594.25 779.531 1603.76 779.531C1611.98 779.531 1618.69 777.796 1623.88 774.327C1629.28 770.858 1633.07 766.197 1635.23 760.343H1687.78C1683.67 779.856 1674.26 795.358 1659.56 806.85C1645.07 818.124 1626.47 823.761 1603.76 823.761C1586.03 823.761 1570.57 819.967 1557.38 812.378C1544.19 804.79 1534.02 794.383 1526.89 781.157C1519.75 767.715 1516.18 752.754 1516.18 736.277C1516.18 720.015 1519.96 705.272 1527.53 692.046C1535.1 678.604 1545.59 668.088 1559 660.5C1572.62 652.695 1587.98 648.792 1605.06 648.792C1631.88 648.792 1652.64 656.706 1667.34 672.533C1682.05 688.144 1689.4 709.934 1689.4 737.903V748.96ZM1604.09 689.77C1595.87 689.77 1588.52 691.938 1582.03 696.274C1575.76 700.611 1571.54 706.898 1569.38 715.137H1637.18C1635.88 707.115 1632.2 700.936 1626.15 696.6C1620.31 692.046 1612.95 689.77 1604.09 689.77Z" fill="black"/>
<path d="M1807.56 653.345V706.031H1784.21C1766.91 706.031 1758.26 714.704 1758.26 732.049V819.208H1706.36V653.345H1755.01V684.566C1756.74 674.593 1761.18 666.896 1768.31 661.476C1775.45 656.055 1783.45 653.345 1792.32 653.345H1807.56Z" fill="black"/>
<path d="M1891.88 823.761C1877.61 823.761 1864.2 820.292 1851.66 813.354C1839.33 806.199 1829.38 796.009 1821.82 782.783C1814.46 769.341 1810.79 753.838 1810.79 736.277C1810.79 718.715 1814.46 703.321 1821.82 690.095C1829.38 676.653 1839.33 666.462 1851.66 659.524C1864.2 652.369 1877.61 648.792 1891.88 648.792C1903.13 648.792 1913.29 650.96 1922.37 655.296C1931.46 659.416 1938.16 664.728 1942.49 671.232V653.345H1992.44V819.208H1942.49V801.321C1938.16 807.825 1931.46 813.246 1922.37 817.582C1913.29 821.701 1903.13 823.761 1891.88 823.761ZM1902.59 776.279C1914.05 776.279 1923.56 772.593 1931.13 765.221C1938.7 757.633 1942.49 747.985 1942.49 736.277C1942.49 724.569 1938.7 715.029 1931.13 707.657C1923.56 700.069 1914.05 696.274 1902.59 696.274C1891.13 696.274 1881.61 700.069 1874.04 707.657C1866.47 715.029 1862.69 724.569 1862.69 736.277C1862.69 747.985 1866.47 757.633 1874.04 765.221C1881.61 772.593 1891.13 776.279 1902.59 776.279Z" fill="black"/>
<path d="M2123.03 694.973H2085.72V819.208H2033.82V694.973H2003.33V653.345H2033.82V604.562H2085.72V653.345H2123.03V694.973Z" fill="black"/>
<path d="M2212.07 823.761C2194.98 823.761 2179.41 819.967 2165.36 812.378C2151.52 804.573 2140.59 794.058 2132.59 780.832C2124.81 767.389 2120.92 752.538 2120.92 736.277C2120.92 720.015 2124.81 705.272 2132.59 692.046C2140.59 678.604 2151.52 668.088 2165.36 660.5C2179.41 652.695 2194.98 648.792 2212.07 648.792C2229.15 648.792 2244.61 652.695 2258.45 660.5C2272.51 668.088 2283.43 678.604 2291.22 692.046C2299.22 705.272 2303.22 720.015 2303.22 736.277C2303.22 752.538 2299.22 767.389 2291.22 780.832C2283.43 794.058 2272.51 804.573 2258.45 812.378C2244.61 819.967 2229.15 823.761 2212.07 823.761ZM2212.07 775.628C2222.88 775.628 2232.07 771.942 2239.64 764.571C2247.42 756.982 2251.32 747.551 2251.32 736.277C2251.32 725.002 2247.42 715.679 2239.64 708.308C2232.07 700.719 2222.88 696.925 2212.07 696.925C2201.25 696.925 2191.96 700.719 2184.17 708.308C2176.6 715.679 2172.82 725.002 2172.82 736.277C2172.82 747.551 2176.6 756.982 2184.17 764.571C2191.96 771.942 2201.25 775.628 2212.07 775.628Z" fill="black"/>
<path d="M2418 653.345V706.031H2394.64C2377.34 706.031 2368.69 714.704 2368.69 732.049V819.208H2316.79V653.345H2365.45V684.566C2367.18 674.593 2371.61 666.896 2378.75 661.476C2385.89 656.055 2393.89 653.345 2402.75 653.345H2418Z" fill="black"/>
</svg>
